<svg xmlns="http://www.w3.org/2000/svg" width="902" height="163" fill="none"><mask id="a" width="32" height="32" x="870" y="104" maskUnits="userSpaceOnUse" style="mask-type:alpha"><path fill="#fff" d="M870.98 104.643h30.626v30.626H870.98z"/></mask><g mask="url(#a)"><path fill="url(#b)" d="M710.891 80.978h320.182V182.32H710.891z"/></g><path fill="#fff" d="M9.29 35.234h20.851v54.603c0 3.208.419 6.346 1.256 9.345 2.65 9.345 9.554 16.807 21.13 16.807 11.716 0 18.62-7.462 21.2-16.807a34.728 34.728 0 0 0 1.255-9.345V35.234h20.851v54.255c0 4.393-.558 8.717-1.464 12.762-4.673 19.386-20.015 33.055-41.772 33.055-21.758 0-37.17-13.669-41.842-33.055-.977-4.045-1.465-8.369-1.465-12.762V35.234Zm207.388 34.31-19.735 6.416c-4.185-13.599-14.506-21.758-28.592-21.758-17.504 0-29.499 13.529-29.499 31.033 0 16.667 11.716 30.893 29.499 30.893 14.017 0 24.338-8.02 28.661-22.106l19.875 6.136c-5.997 20.991-25.663 35.078-48.536 35.078-27.825 0-50.978-21.409-50.978-50.001 0-28.034 22.107-50.07 50.978-50.07 22.106 0 41.632 12.133 48.327 34.38Zm198.986 48.397 12.552-14.993c8.299 7.601 18.759 12.901 29.708 12.901 8.508 0 17.992-3.487 17.992-11.158 0-9.344-14.435-10.53-29.15-13.598-16.736-3.487-30.126-10.46-30.126-26.5 0-16.388 12.762-29.429 35.566-29.429 12.622 0 25.802 4.254 36.89 12.971L477.241 62.99c-6.625-5.579-16.318-8.926-25.314-8.926-7.323 0-15.063 2.65-15.063 8.647 0 6.555 8.229 8.438 22.385 10.81 16.807 2.789 37.17 8.437 37.17 31.102 0 17.643-16.667 30.614-38.146 30.614-13.32 0-28.732-4.882-42.609-17.295Zm91.904-82.707h86.682V54.55h-32.915v80.685h-20.921V54.551h-32.846V35.234Zm201.111 50c0 28.105-21.618 50.002-50.977 50.002-29.289 0-50.907-21.897-50.907-50.001 0-28.034 21.618-50.001 50.907-50.001 29.359 0 50.977 21.967 50.977 50Zm-21.409 0c0-17.224-11.576-30.823-29.568-30.823-17.922 0-29.498 13.599-29.498 30.824 0 17.294 11.576 30.754 29.498 30.754 17.992 0 29.568-13.46 29.568-30.754Zm43.996-50h11.367l42.748 49.582 42.749-49.582h11.367v100.002h-20.852V73.798l-33.264 39.122-33.264-39.122v61.438h-20.851V35.234Z"/><path fill="url(#c)" d="M258.457 35.039h82.422v54.69c0 3.213 4.733 6.356 5.783 9.36 3.325 9.359-5.783 20.305-13.1 18.214-14.656-8.366 2.505-8.855 5.742-18.215a28.257 28.257 0 0 0 1.575-9.359v-54.69h26.161v54.34c0 4.401-.7 8.732-1.837 12.783-5.862 19.417-25.112 33.107-52.411 33.107-27.298 0-46.635-13.69-52.498-33.107-1.224-4.051-1.837-8.382-1.837-12.782V35.039Z"/><path fill="#fff" d="M237.576 35.368h20.664v51.56c0 3.029.415 5.992 1.244 8.824 3.012 10.283 17.767 21.277 51.142 21.277 30.661 0 48.758-6.121 55.388-21.607a31.318 31.318 0 0 0 1.244-8.824v-51.56h20.664V86.27c0 4.149-.552 8.231-1.451 12.05-4.63 18.307-22.214 36.95-75.776 36.95-49.453 0-67.037-18.314-71.668-36.62-.967-3.82-1.451-7.902-1.451-12.05V35.368Z"/><defs><linearGradient id="b" x1="710.891" x2="1038.42" y1="131.648" y2="131.648" gradientUnits="userSpaceOnUse"><stop offset=".036" stop-color="#331383"/><stop offset=".24" stop-color="#417"/><stop offset=".552" stop-color="#D7355A"/><stop offset=".646" stop-color="#F22027"/></linearGradient><linearGradient id="c" x1="250.104" x2="394.885" y1="63.577" y2="66.943" gradientUnits="userSpaceOnUse"><stop offset=".069" stop-color="#118DFF"/><stop offset=".809" stop-color="#FF1A1A"/></linearGradient></defs></svg>